<svg aria-hidden="true" style="position: absolute; width: 0; height: 0; overflow: hidden;" version="1.1" xmlns="http://www.w3.org/2000/svg" xmlns:xlink="http://www.w3.org/1999/xlink">
<defs>
<symbol id="icon-compass" viewBox="0 0 32 32">
<title>compass</title>
<path d="M17 32c-0.072 0-0.144-0.008-0.217-0.024-0.458-0.102-0.783-0.507-0.783-0.976v-15h-15c-0.469 0-0.875-0.326-0.976-0.783s0.129-0.925 0.553-1.123l30-14c0.381-0.178 0.833-0.098 1.13 0.199s0.377 0.749 0.199 1.13l-14 30c-0.167 0.358-0.524 0.577-0.906 0.577zM5.508 14h11.492c0.552 0 1 0.448 1 1v11.492l10.931-23.423-23.423 10.931z"></path>
</symbol>
<symbol id="icon-accessibility" viewBox="0 0 32 32">
<title>accessibility</title>
<path d="M13 3c0-1.657 1.343-3 3-3s3 1.343 3 3c0 1.657-1.343 3-3 3s-3-1.343-3-3z"></path>
<path d="M20 10l10.3-4.443-0.743-1.857-12.557 4.3h-2l-12.557-4.3-0.743 1.857 10.3 4.443v8l-4.102 13.268 1.87 0.709 5.804-12.977h0.857l5.804 12.977 1.87-0.709-4.102-13.268z"></path>
</symbol>
<symbol id="icon-sphere" viewBox="0 0 32 32">
<title>sphere</title>
<path d="M15 2c-8.284 0-15 6.716-15 15s6.716 15 15 15c8.284 0 15-6.716 15-15s-6.716-15-15-15zM23.487 22c0.268-1.264 0.437-2.606 0.492-4h3.983c-0.104 1.381-0.426 2.722-0.959 4h-3.516zM6.513 12c-0.268 1.264-0.437 2.606-0.492 4h-3.983c0.104-1.381 0.426-2.722 0.959-4h3.516zM21.439 12c0.3 1.28 0.481 2.62 0.54 4h-5.979v-4h5.439zM16 10v-5.854c0.456 0.133 0.908 0.355 1.351 0.668 0.831 0.586 1.625 1.488 2.298 2.609 0.465 0.775 0.867 1.638 1.203 2.578h-4.852zM10.351 7.422c0.673-1.121 1.467-2.023 2.298-2.609 0.443-0.313 0.895-0.535 1.351-0.668v5.854h-4.852c0.336-0.94 0.738-1.803 1.203-2.578zM14 12v4h-5.979c0.059-1.38 0.24-2.72 0.54-4h5.439zM2.997 22c-0.533-1.278-0.854-2.619-0.959-4h3.983c0.055 1.394 0.224 2.736 0.492 4h-3.516zM8.021 18h5.979v4h-5.439c-0.3-1.28-0.481-2.62-0.54-4zM14 24v5.854c-0.456-0.133-0.908-0.355-1.351-0.668-0.831-0.586-1.625-1.488-2.298-2.609-0.465-0.775-0.867-1.638-1.203-2.578h4.852zM19.649 26.578c-0.673 1.121-1.467 2.023-2.298 2.609-0.443 0.312-0.895 0.535-1.351 0.668v-5.854h4.852c-0.336 0.94-0.738 1.802-1.203 2.578zM16 22v-4h5.979c-0.059 1.38-0.24 2.72-0.54 4h-5.439zM23.98 16c-0.055-1.394-0.224-2.736-0.492-4h3.516c0.533 1.278 0.855 2.619 0.959 4h-3.983zM25.958 10h-2.997c-0.582-1.836-1.387-3.447-2.354-4.732 1.329 0.636 2.533 1.488 3.585 2.54 0.671 0.671 1.261 1.404 1.766 2.192zM5.808 7.808c1.052-1.052 2.256-1.904 3.585-2.54-0.967 1.285-1.771 2.896-2.354 4.732h-2.997c0.504-0.788 1.094-1.521 1.766-2.192zM4.042 24h2.997c0.583 1.836 1.387 3.447 2.354 4.732-1.329-0.636-2.533-1.488-3.585-2.54-0.671-0.671-1.261-1.404-1.766-2.192zM24.192 26.192c-1.052 1.052-2.256 1.904-3.585 2.54 0.967-1.285 1.771-2.896 2.354-4.732h2.997c-0.504 0.788-1.094 1.521-1.766 2.192z"></path>
</symbol>
<symbol id="icon-tongue" viewBox="0 0 32 32">
<title>tongue</title>
<path d="M16 32c8.837 0 16-7.163 16-16s-7.163-16-16-16-16 7.163-16 16 7.163 16 16 16zM16 3c7.18 0 13 5.82 13 13s-5.82 13-13 13-13-5.82-13-13 5.82-13 13-13zM8 10c0-1.105 0.895-2 2-2s2 0.895 2 2c0 1.105-0.895 2-2 2s-2-0.895-2-2zM20 10c0-1.105 0.895-2 2-2s2 0.895 2 2c0 1.105-0.895 2-2 2s-2-0.895-2-2zM24 18v2h-2v3c0 1.657-1.343 3-3 3s-3-1.343-3-3v-3h-8v-2h16z"></path>
</symbol>
<symbol id="icon-crying2" viewBox="0 0 32 32">
<title>crying2</title>
<path d="M16 0c-8.837 0-16 7.163-16 16s7.163 16 16 16 16-7.163 16-16-7.163-16-16-16zM10 23c0 0.552-0.448 1-1 1s-1-0.448-1-1v-2c0-0.552 0.448-1 1-1s1 0.448 1 1v2zM10 17c0 0.552-0.448 1-1 1s-1-0.448-1-1v-2c0-0.552 0.448-1 1-1s1 0.448 1 1v2zM11 12h-4c-0.552 0-1-0.448-1-1s0.448-1 1-1h4c0.552 0 1 0.448 1 1s-0.448 1-1 1zM19.707 26.457c-0.195 0.195-0.451 0.293-0.707 0.293s-0.512-0.098-0.707-0.293c-0.143-0.143-0.919-0.457-2.293-0.457s-2.15 0.314-2.293 0.457c-0.39 0.39-1.024 0.39-1.414 0s-0.391-1.024 0-1.414c0.941-0.941 2.906-1.043 3.707-1.043s2.766 0.102 3.707 1.043c0.391 0.39 0.391 1.024 0 1.414zM24 23c0 0.552-0.448 1-1 1s-1-0.448-1-1v-2c0-0.552 0.448-1 1-1s1 0.448 1 1v2zM24 17c0 0.552-0.448 1-1 1s-1-0.448-1-1v-2c0-0.552 0.448-1 1-1s1 0.448 1 1v2zM25 12h-4c-0.552 0-1-0.448-1-1s0.448-1 1-1h4c0.552 0 1 0.448 1 1s-0.448 1-1 1z"></path>
</symbol>
<symbol id="icon-infinite" viewBox="0 0 32 32">
<title>infinite</title>
<path d="M24.5 23.5c-2.003 0-3.887-0.78-5.303-2.197l-3.197-3.196-3.196 3.196c-1.417 1.417-3.3 2.197-5.303 2.197s-3.887-0.78-5.304-2.197c-1.417-1.417-2.197-3.3-2.197-5.303s0.78-3.887 2.197-5.304c1.417-1.417 3.3-2.197 5.304-2.197s3.887 0.78 5.303 2.197l3.196 3.196 3.196-3.196c1.417-1.417 3.3-2.197 5.303-2.197s3.887 0.78 5.303 2.197c1.417 1.417 2.197 3.3 2.197 5.304s-0.78 3.887-2.197 5.303c-1.416 1.417-3.3 2.197-5.303 2.197zM21.304 19.197c0.854 0.853 1.989 1.324 3.196 1.323s2.342-0.47 3.196-1.324c0.854-0.854 1.324-1.989 1.324-3.196s-0.47-2.342-1.324-3.196c-0.854-0.854-1.989-1.324-3.196-1.324s-2.342 0.47-3.196 1.324l-3.196 3.196 3.196 3.197zM7.5 11.48c-1.207 0-2.342 0.47-3.196 1.324s-1.324 1.989-1.324 3.196c0 1.207 0.47 2.342 1.324 3.196s1.989 1.324 3.196 1.324c1.207 0 2.342-0.47 3.196-1.324l3.196-3.196-3.196-3.196c-0.854-0.854-1.989-1.324-3.196-1.324v0z"></path>
</symbol>
<symbol id="icon-make-group" viewBox="0 0 32 32">
<title>make-group</title>
<path d="M10 4h-4c-1.1 0-2 0.9-2 2v4c0 1.1 0.9 2 2 2h4c1.1 0 2-0.9 2-2v-4c0-1.1-0.9-2-2-2z"></path>
<path d="M22 12h4c1.1 0 2-0.9 2-2v-4c0-1.1-0.9-2-2-2h-4c-1.1 0-2 0.9-2 2v4c0 1.1 0.9 2 2 2zM22 6h4v4h-4v-4z"></path>
<path d="M10 20h-4c-1.1 0-2 0.9-2 2v4c0 1.1 0.9 2 2 2h4c1.1 0 2-0.9 2-2v-4c0-1.1-0.9-2-2-2zM10 26h-4v-4h4v4z"></path>
<path d="M26 20h-4c-1.1 0-2 0.9-2 2v4c0 1.1 0.9 2 2 2h4c1.1 0 2-0.9 2-2v-4c0-1.1-0.9-2-2-2z"></path>
<path d="M28 16h-2c-2.671 0-5.182-1.040-7.071-2.929s-2.929-4.4-2.929-7.071v-2c0-2.2-1.8-4-4-4h-8c-2.2 0-4 1.8-4 4v8c0 2.2 1.8 4 4 4h2c2.671 0 5.182 1.040 7.071 2.929s2.929 4.4 2.929 7.071v2c0 2.2 1.8 4 4 4h8c2.2 0 4-1.8 4-4v-8c0-2.2-1.8-4-4-4zM30 28c0 0.53-0.209 1.031-0.589 1.411s-0.881 0.589-1.411 0.589h-8c-0.53 0-1.031-0.209-1.411-0.589s-0.589-0.881-0.589-1.411v-2c0-6.627-5.373-12-12-12h-2c-0.53 0-1.031-0.209-1.411-0.589s-0.589-0.881-0.589-1.411v-8c0-0.53 0.209-1.031 0.589-1.411s0.881-0.589 1.411-0.589h8c0.53 0 1.031 0.209 1.411 0.589s0.589 0.881 0.589 1.411v2c0 6.627 5.373 12 12 12h2c0.53 0 1.031 0.209 1.411 0.589s0.589 0.881 0.589 1.411v8z"></path>
</symbol>
<symbol id="icon-omega" viewBox="0 0 32 32">
<title>omega</title>
<path d="M22 28h8l2-4v8h-12v-6.694c4.097-1.765 7-6.161 7-11.306 0-6.701-4.925-11.946-11-11.946s-11 5.245-11 11.946c0 5.144 2.903 9.541 7 11.306v6.694h-12v-8l2 4h8v-1.018c-5.863-2.077-10-7.106-10-12.982 0-7.732 7.163-14 16-14s16 6.268 16 14c0 5.875-4.137 10.905-10 12.982v1.018z"></path>
</symbol>
<symbol id="icon-steam" viewBox="0 0 32 32">
<title>steam</title>
<path d="M22 9c0-1.657 1.343-3 3-3s3 1.343 3 3c0 1.657-1.343 3-3 3s-3-1.343-3-3zM29.95 4.050c-2.734-2.734-7.166-2.734-9.9 0-1.112 1.112-1.771 2.505-1.979 3.95v0l-6.397 9.695c-0.86 0.044-1.712 0.263-2.499 0.657l-4.934-3.857c-1.142-0.893-2.792-0.691-3.685 0.451s-0.691 2.792 0.452 3.685l4.873 3.809c-0.53 2.087 0.021 4.392 1.654 6.025 2.466 2.466 6.464 2.466 8.929 0 1.515-1.515 2.098-3.607 1.752-5.568l7.783-6.968c1.445-0.207 2.838-0.867 3.95-1.979 2.734-2.734 2.734-7.166 0-9.899zM12 28.209c-2.325 0-4.209-1.884-4.209-4.209 0-0.022 0.001-0.044 0.002-0.066l2.091 1.634c0.48 0.375 1.049 0.557 1.615 0.557 0.78 0 1.552-0.346 2.070-1.009 0.893-1.142 0.691-2.792-0.451-3.685l-1.984-1.551c0.28-0.059 0.57-0.090 0.868-0.090 2.325 0 4.209 1.884 4.209 4.209s-1.885 4.209-4.209 4.209zM25 14c-2.761 0-5-2.239-5-5s2.239-5 5-5 5 2.239 5 5-2.239 5-5 5z"></path>
</symbol>
<symbol id="icon-basecamp" viewBox="0 0 32 32">
<title>basecamp</title>
<path d="M16 3.331c-5.838 0-10.338 4.888-12.887 9.675-1.438 2.694-2.444 5.644-2.906 8.663-0.050 0.344-0.1 0.688-0.138 1.038-0.019 0.188-0.037 0.375-0.050 0.563-0.019 0.238-0.006 0.313 0.119 0.512 0.375 0.606 0.819 1.169 1.319 1.675 1.025 1.050 2.269 1.856 3.588 2.481 3.006 1.419 6.4 1.931 9.7 2.044 3.406 0.113 6.906-0.169 10.162-1.231 2.781-0.906 5.462-2.488 7.006-5.044 0.169-0.275 0.050-0.681 0.019-1-0.038-0.381-0.087-0.756-0.15-1.131-0.113-0.738-0.262-1.462-0.444-2.188-0.363-1.475-0.856-2.925-1.456-4.319-2.175-5.050-6.2-10.438-11.925-11.55-0.644-0.125-1.3-0.188-1.956-0.188zM16.2 27.819c-3.569 0-7.456-0.319-10.669-2.038-1.25-0.669-2.525-1.637-3.125-2.969-0.175-0.387-0.112-0.538-0.031-0.994 0.056-0.294 0.081-0.581 0.212-0.856 0.181-0.381 0.369-0.756 0.563-1.131 0.656-1.269 1.363-2.525 2.181-3.706 0.406-0.581 0.838-1.156 1.337-1.656 0.35-0.35 0.775-0.725 1.269-0.844 1.513-0.363 2.669 1.387 3.587 2.269 0.444 0.425 1.037 0.906 1.7 0.825 0.456-0.056 0.863-0.413 1.188-0.706 1.106-0.994 1.994-2.225 2.913-3.381 0.456-0.569 0.906-1.144 1.4-1.688 0.331-0.369 0.694-0.787 1.137-1.025 0.794-0.431 1.806 0.456 2.356 0.912 0.938 0.781 1.769 1.694 2.563 2.619 0.756 0.881 1.488 1.775 2.131 2.744 0.994 1.5 1.856 3.1 2.644 4.719 0.169 0.35 0.225 0.587 0.288 0.975 0.038 0.212 0.119 0.456 0.087 0.675-0.044 0.306-0.256 0.637-0.413 0.887-0.375 0.594-0.881 1.106-1.438 1.538-2.331 1.806-5.488 2.406-8.356 2.675-1.175 0.113-2.35 0.156-3.525 0.156z"></path>
</symbol>
</defs>
</svg>
